<mxfile host="drawio-plugin" modified="2023-12-31T08:57:25.555Z" agent="5.0 (Windows NT 6.2; Win64; x64) AppleWebKit/537.36 (KHTML, like Gecko) Chrome/104.0.5112.102 Safari/537.36" version="20.5.3" etag="jW5OM1WHXL6bO6oo_yYt" type="embed"><diagram id="QUittxUWSxO_YWIVfwuG" name="Page-1"><mxGraphModel dx="620" dy="563" grid="1" gridSize="10" guides="1" tooltips="1" connect="1" arrows="1" fold="1" page="1" pageScale="1" pageWidth="850" pageHeight="1100" math="0" shadow="0"><root><mxCell id="0"/><mxCell id="1" parent="0"/><mxCell id="2" value="&lt;font style=&quot;font-size: 17px;&quot;&gt;Programmer&lt;/font&gt;" style="rounded=0;whiteSpace=wrap;html=1;fillColor=#4D4D4D;align=center;strokeColor=#B3B3B3;" vertex="1" parent="1"><mxGeometry x="190" y="30" width="220" height="50" as="geometry"/></mxCell><mxCell id="3" value="I" style="ellipse;whiteSpace=wrap;html=1;aspect=fixed;strokeColor=#B3B3B3;strokeWidth=0;fontSize=25;fontColor=#000000;fillColor=#00CC00;" vertex="1" parent="1"><mxGeometry x="200" y="35" width="40" height="40" as="geometry"/></mxCell><mxCell id="4" value="&lt;font style=&quot;font-size: 17px;&quot;&gt;JavaP&lt;/font&gt;" style="rounded=0;whiteSpace=wrap;html=1;fillColor=#4D4D4D;align=center;strokeColor=#B3B3B3;" vertex="1" parent="1"><mxGeometry x="10" y="120" width="190" height="50" as="geometry"/></mxCell><mxCell id="5" value="K" style="ellipse;whiteSpace=wrap;html=1;aspect=fixed;strokeColor=#B3B3B3;strokeWidth=0;fontSize=25;fontColor=#000000;fillColor=#3399FF;" vertex="1" parent="1"><mxGeometry x="20" y="125" width="40" height="40" as="geometry"/></mxCell><mxCell id="6" value="&lt;font style=&quot;font-size: 17px;&quot;&gt;TSP&lt;/font&gt;" style="rounded=0;whiteSpace=wrap;html=1;fillColor=#4D4D4D;align=center;strokeColor=#B3B3B3;" vertex="1" parent="1"><mxGeometry x="293" y="120" width="177" height="50" as="geometry"/></mxCell><mxCell id="7" value="K" style="ellipse;whiteSpace=wrap;html=1;aspect=fixed;strokeColor=#B3B3B3;strokeWidth=0;fontSize=25;fontColor=#000000;fillColor=#3399FF;" vertex="1" parent="1"><mxGeometry x="303" y="125" width="40" height="40" as="geometry"/></mxCell><mxCell id="8" value="&lt;font style=&quot;font-size: 17px;&quot;&gt;Company&lt;/font&gt;" style="rounded=0;whiteSpace=wrap;html=1;fillColor=#4D4D4D;align=center;strokeColor=#B3B3B3;" vertex="1" parent="1"><mxGeometry x="190" y="270" width="190" height="50" as="geometry"/></mxCell><mxCell id="9" value="I" style="ellipse;whiteSpace=wrap;html=1;aspect=fixed;strokeColor=#B3B3B3;strokeWidth=0;fontSize=25;fontColor=#000000;fillColor=#00CC00;" vertex="1" parent="1"><mxGeometry x="200" y="275" width="40" height="40" as="geometry"/></mxCell><mxCell id="10" value="&lt;font style=&quot;font-size: 17px;&quot;&gt;JavaC&lt;/font&gt;" style="rounded=0;whiteSpace=wrap;html=1;fillColor=#4D4D4D;align=center;strokeColor=#B3B3B3;" vertex="1" parent="1"><mxGeometry x="10" y="370" width="200" height="50" as="geometry"/></mxCell><mxCell id="11" value="K" style="ellipse;whiteSpace=wrap;html=1;aspect=fixed;strokeColor=#B3B3B3;strokeWidth=0;fontSize=25;fontColor=#000000;fillColor=#3399FF;" vertex="1" parent="1"><mxGeometry x="20" y="375" width="40" height="40" as="geometry"/></mxCell><mxCell id="12" value="&lt;font style=&quot;font-size: 17px;&quot;&gt;TSC&lt;/font&gt;" style="rounded=0;whiteSpace=wrap;html=1;fillColor=#4D4D4D;align=center;strokeColor=#B3B3B3;" vertex="1" parent="1"><mxGeometry x="343" y="370" width="167" height="50" as="geometry"/></mxCell><mxCell id="13" value="K" style="ellipse;whiteSpace=wrap;html=1;aspect=fixed;strokeColor=#B3B3B3;strokeWidth=0;fontSize=25;fontColor=#000000;fillColor=#3399FF;" vertex="1" parent="1"><mxGeometry x="353" y="375" width="40" height="40" as="geometry"/></mxCell><mxCell id="14" value="" style="endArrow=block;dashed=1;endFill=0;endSize=12;html=1;rounded=0;entryX=0.25;entryY=1;entryDx=0;entryDy=0;exitX=0.5;exitY=0;exitDx=0;exitDy=0;" edge="1" parent="1" source="4" target="2"><mxGeometry width="160" relative="1" as="geometry"><mxPoint x="240" y="290" as="sourcePoint"/><mxPoint x="400" y="290" as="targetPoint"/></mxGeometry></mxCell><mxCell id="15" value="" style="endArrow=block;dashed=1;endFill=0;endSize=12;html=1;rounded=0;entryX=0.5;entryY=1;entryDx=0;entryDy=0;exitX=0.5;exitY=0;exitDx=0;exitDy=0;" edge="1" parent="1" source="6" target="2"><mxGeometry width="160" relative="1" as="geometry"><mxPoint x="240" y="290" as="sourcePoint"/><mxPoint x="400" y="290" as="targetPoint"/></mxGeometry></mxCell><mxCell id="16" value="" style="endArrow=block;dashed=1;endFill=0;endSize=12;html=1;rounded=0;entryX=0.25;entryY=1;entryDx=0;entryDy=0;exitX=0.5;exitY=0;exitDx=0;exitDy=0;" edge="1" parent="1" source="10" target="8"><mxGeometry width="160" relative="1" as="geometry"><mxPoint x="240" y="290" as="sourcePoint"/><mxPoint x="400" y="290" as="targetPoint"/></mxGeometry></mxCell><mxCell id="17" value="" style="endArrow=block;dashed=1;endFill=0;endSize=12;html=1;rounded=0;entryX=0.75;entryY=1;entryDx=0;entryDy=0;exitX=0.53;exitY=-0.048;exitDx=0;exitDy=0;exitPerimeter=0;" edge="1" parent="1" source="12" target="8"><mxGeometry width="160" relative="1" as="geometry"><mxPoint x="240" y="290" as="sourcePoint"/><mxPoint x="400" y="290" as="targetPoint"/></mxGeometry></mxCell></root></mxGraphModel></diagram></mxfile>